<svg width="28" height="28" viewBox="0 0 28 28" fill="none" xmlns="http://www.w3.org/2000/svg">
<path d="M16.8002 4.54995C16.8002 3.39015 15.86 2.44995 14.7002 2.44995H13.3002C12.1404 2.44995 11.2002 3.39015 11.2002 4.54995V5.55022C11.2002 6.17385 10.4462 6.48617 10.0052 6.0452L9.29794 5.33792C8.47784 4.51782 7.14819 4.51782 6.32809 5.33792L5.33814 6.32787C4.51804 7.14797 4.51804 8.47761 5.33814 9.29771L6.04541 10.005C6.48638 10.446 6.17406 11.2 5.55043 11.2L4.5502 11.1999C3.3904 11.1999 2.4502 12.1402 2.4502 13.2999L2.4502 14.6999C2.4502 15.8597 3.3904 16.7999 4.5502 16.7999H5.55039C6.17402 16.7999 6.48634 17.5539 6.04536 17.9949L5.33814 18.7022C4.51803 19.5223 4.51803 20.8519 5.33814 21.672L6.32809 22.662C7.14819 23.4821 8.47783 23.4821 9.29793 22.662L10.0052 21.9547C10.4462 21.5137 11.2002 21.826 11.2002 22.4496V23.45C11.2002 24.6097 12.1404 25.55 13.3002 25.55H14.7002C15.86 25.55 16.8002 24.6097 16.8002 23.45V22.4497C16.8002 21.8261 17.5542 21.5138 17.9952 21.9547L18.7025 22.662C19.5226 23.4821 20.8522 23.4821 21.6723 22.662L22.6623 21.6721C23.4824 20.852 23.4824 19.5223 22.6623 18.7022L21.955 17.9949C21.514 17.554 21.8263 16.8 22.4499 16.8H23.4502C24.61 16.8 25.5502 15.8597 25.5502 14.7V13.3C25.5502 12.1402 24.61 11.2 23.4502 11.2L22.4499 11.2C21.8262 11.2 21.5139 10.446 21.9549 10.005L22.6623 9.29763C23.4824 8.47753 23.4824 7.14788 22.6623 6.32778L21.6723 5.33783C20.8522 4.51773 19.5226 4.51773 18.7025 5.33783L17.9952 6.04512C17.5542 6.48609 16.8002 6.17378 16.8002 5.55014V4.54995Z" stroke="white" stroke-linejoin="round"/>
<path d="M17.8502 14C17.8502 16.1262 16.1265 17.85 14.0002 17.85C11.8739 17.85 10.1502 16.1262 10.1502 14C10.1502 11.8737 11.8739 10.15 14.0002 10.15C16.1265 10.15 17.8502 11.8737 17.8502 14Z" stroke="white" stroke-linejoin="round"/>
</svg>
