<svg width="28" height="28" viewBox="0 0 28 28" fill="none" xmlns="http://www.w3.org/2000/svg">
<path d="M10.0188 24.5944C8.50809 24.7891 7.449 24.5789 6.70514 24.1617C5.86739 23.692 5.50786 23.0039 5.34187 22.5408C5.27655 22.3767 5.08665 22.0016 4.8388 21.6247C4.71498 21.4364 4.58335 21.258 4.45375 21.1116C4.32134 20.9621 4.21176 20.8698 4.13405 20.8256C3.98464 20.7452 3.82177 20.6374 3.67854 20.5167C3.54499 20.4042 3.37931 20.24 3.2878 20.0392C3.23951 19.9332 3.19537 19.7805 3.22611 19.6055C3.25923 19.4169 3.36711 19.2705 3.50074 19.1724C3.72788 19.0056 4.04446 18.9646 4.35004 18.9601M10.0188 24.5944L27.5 14C27.4993 16.8287 26.6115 19.586 24.9616 21.8837C23.3184 24.172 21.0018 25.8898 18.3355 26.7976C18.1254 26.8337 18.0624 26.7769 18.0534 26.7688L18.0532 26.7687C18.0285 26.7464 18 26.6938 18 26.6175C18 26.4613 18.0019 26.1911 18.0045 25.8289C18.0058 25.6482 18.0073 25.4445 18.0087 25.2208C18.0131 24.5508 18.0175 23.7053 18.0175 22.7675C18.0175 21.8491 17.8189 21.1097 17.5052 20.552C18.8274 20.3272 20.1739 19.8951 21.2557 18.9878C22.6029 17.8578 23.46 16.0607 23.46 13.265C23.46 11.7119 22.9474 10.4255 22.0925 9.39351C22.2927 8.74094 22.5475 7.35251 21.8492 5.6068L21.7626 5.39023L21.541 5.31745L21.385 5.7925C21.541 5.31745 21.5405 5.3173 21.54 5.31713L21.539 5.31681L21.5369 5.31613L21.5324 5.31471L21.5219 5.31157C21.5144 5.30936 21.5056 5.30693 21.4957 5.30436C21.4757 5.29924 21.4509 5.29357 21.4213 5.28803C21.3619 5.27693 21.2834 5.26637 21.1852 5.26142C20.9883 5.25149 20.7152 5.26418 20.3617 5.33808C19.6888 5.47877 18.7285 5.8403 17.4461 6.68535C16.3462 6.39797 15.1896 6.255 14.035 6.255C12.88 6.255 11.7229 6.39809 10.6226 6.68568C9.34042 5.84853 8.38116 5.48766 7.70989 5.34499C7.35734 5.27006 7.08521 5.25555 6.88934 5.26367C6.79155 5.26772 6.7134 5.27739 6.65439 5.28772C6.62491 5.29288 6.60029 5.29819 6.58046 5.30302C6.57055 5.30544 6.56185 5.30773 6.55435 5.30982L6.544 5.31279L6.53951 5.31414L6.53743 5.31477L6.53643 5.31508C6.53594 5.31524 6.53546 5.31539 6.685 5.7925L6.53546 5.31539L6.30893 5.38639L6.22076 5.60681C5.52242 7.35266 5.77738 8.74119 5.97755 9.39367C5.12221 10.4283 4.61 11.7289 4.61 13.265C4.61 16.0516 5.46245 17.8481 6.80446 18.9803C7.88322 19.8904 9.22722 20.326 10.5499 20.552C10.3699 20.8723 10.227 21.2534 10.1398 21.6946C9.77555 21.831 9.27895 21.9537 8.76516 21.9065C8.15968 21.8508 7.48603 21.5575 6.93968 20.6393L6.93979 20.6393L6.934 20.63C6.78555 20.3925 6.49073 19.9834 6.07019 19.6305C5.65074 19.2784 5.06502 18.9489 4.35004 18.9601M10.0188 24.5944C10.0205 24.9703 10.0234 25.3253 10.0263 25.6335C10.0276 25.7774 10.029 25.9105 10.0302 26.0306C10.0329 26.3005 10.035 26.5046 10.035 26.6175C10.035 26.6915 10.0081 26.7388 9.98473 26.7595C9.97383 26.7691 9.90638 26.8262 9.69247 26.7954C4.34498 24.9951 0.5 19.9588 0.5 14C0.5 6.54114 6.54114 0.5 14 0.5C21.4588 0.5 27.4999 6.54107 27.5 13.9999L10.0188 24.5944ZM4.35004 18.9601L4.3575 19.46M4.35004 18.9601C4.34988 18.9601 4.34972 18.9601 4.34956 18.9601L4.3575 19.46M4.3575 19.46C5.46 19.4425 6.2475 20.475 6.51 20.895L4.375 20.3875C3.885 20.125 3.185 19.4775 4.3575 19.46Z" stroke="white"/>
</svg>
