<svg width="28" height="28" viewBox="0 0 28 28" fill="none" xmlns="http://www.w3.org/2000/svg">
<path d="M8.42079 2.82152C8.18288 2.58361 7.8602 2.44995 7.52373 2.44995C4.72116 2.44995 2.44922 4.72189 2.44922 7.52447V9.91813C2.44922 11.4501 2.81822 12.9596 3.52501 14.3188C5.78612 18.6671 9.33211 22.2131 13.6804 24.4742C15.0396 25.1809 16.549 25.5499 18.081 25.5499H21.5532C23.7601 25.5499 25.5492 23.7609 25.5492 21.5539C25.5492 20.5518 25.0484 19.6161 24.2146 19.0602C23.7755 18.7675 21.9228 17.5323 21.686 17.4737C21.4648 17.4188 21.2336 17.4188 21.0124 17.4737C20.7756 17.5323 18.7553 18.9718 18.1212 19.2535C17.4872 19.5351 16.7711 19.5713 16.1119 19.3551C15.8852 19.2808 14.5229 18.659 13.604 18.0455C11.9272 16.9262 11.0567 16.0827 9.95365 14.3952C9.45186 13.6275 8.9246 12.5034 8.8577 12.3181C8.58451 11.5611 8.68595 10.4394 9.2537 9.68451C9.82145 8.92964 11.4969 7.40223 11.6008 7.08257C11.6922 6.80139 11.6922 6.49851 11.6008 6.21733C11.5275 5.99186 8.42079 2.82152 8.42079 2.82152Z" stroke="white" stroke-miterlimit="1.41421" stroke-linejoin="round"/>
</svg>
