<svg width="28" height="28" viewBox="0 0 28 28" fill="none" xmlns="http://www.w3.org/2000/svg">
<path d="M2.4502 16.4501V22.7501C2.4502 24.2965 3.70381 25.5501 5.2502 25.5501H22.7502C24.2966 25.5501 25.5502 24.2965 25.5502 22.7501V16.4501M2.4502 16.4501L2.4502 6.9302C2.45019 5.36205 2.45019 4.57798 2.75538 3.97902C3.02382 3.45217 3.45217 3.02382 3.97902 2.75538C4.57797 2.45019 5.36205 2.45019 6.9302 2.4502L21.0702 2.4502C22.6384 2.4502 23.4224 2.4502 24.0214 2.75539C24.5482 3.02383 24.9766 3.45218 25.245 3.97903C25.5502 4.57798 25.5502 5.36206 25.5502 6.9302V16.4501M2.4502 16.4501H6.31971C7.38027 16.4501 8.34981 17.0493 8.8241 17.9979L9.0263 18.4023C9.5006 19.3508 10.4701 19.9501 11.5307 19.9501H16.4697C17.5303 19.9501 18.4998 19.3508 18.9741 18.4023L19.1763 17.9979C19.6506 17.0493 20.6201 16.4501 21.6807 16.4501H25.5502" stroke="white" stroke-linejoin="round"/>
</svg>
