<svg width="28" height="24" viewBox="0 0 28 24" fill="none" xmlns="http://www.w3.org/2000/svg">
<path d="M2.1061 10.408L2.10614 10.4081L2.11529 10.4041C9.63116 7.15972 14.6297 5.00603 17.138 3.96181C20.7144 2.47796 22.8669 1.61281 24.2443 1.11591C25.6232 0.618465 26.1756 0.509661 26.5704 0.500012C26.6498 0.500374 26.7799 0.508938 26.9172 0.540579C27.0585 0.573147 27.1772 0.623247 27.2592 0.687047C27.3693 0.780224 27.4085 0.899776 27.4491 1.10168C27.4846 1.27793 27.5206 1.66985 27.4861 1.9437L27.4852 1.95116L27.4845 1.95865C27.1005 5.98774 25.43 15.8052 24.571 20.3303C24.216 22.1984 23.5886 22.5188 23.2571 22.5507C22.6504 22.6018 22.0964 22.4089 21.489 22.0561C21.1834 21.8786 20.8747 21.6669 20.5431 21.4334C20.4835 21.3915 20.4232 21.3488 20.3621 21.3056C20.0877 21.1115 19.7975 20.9064 19.4956 20.7093L19.4939 20.7082C18.2423 19.8983 17.3138 19.2685 16.3629 18.6234C15.5714 18.0865 14.7643 17.539 13.7425 16.8685L13.7412 16.8676C13.1282 16.4682 12.8368 16.1555 12.7143 15.9238C12.6114 15.7291 12.6163 15.5734 12.6989 15.3868C12.797 15.1654 13.0022 14.914 13.3185 14.596C13.4569 14.4568 13.6067 14.3142 13.7679 14.1609C13.7862 14.1435 13.8046 14.1259 13.8233 14.1082C14.0025 13.9376 14.1928 13.7554 14.3812 13.5626C14.4613 13.4836 14.7859 13.184 15.2573 12.7491C15.9598 12.101 16.9883 11.1522 18.0188 10.1841C18.8758 9.37897 19.7284 8.56578 20.376 7.91898C20.6992 7.59625 20.9762 7.31008 21.1786 7.0848C21.2792 6.97282 21.3673 6.86934 21.4349 6.78016C21.4685 6.73576 21.502 6.68844 21.5307 6.64088C21.5524 6.60485 21.5904 6.53825 21.6137 6.45525C21.6372 6.37568 21.6422 6.29815 21.6431 6.2476C21.6444 6.18116 21.6394 6.10571 21.625 6.027C21.5984 5.88137 21.5265 5.65691 21.3286 5.48828C21.134 5.32252 20.9122 5.28351 20.744 5.28351C20.5876 5.28351 20.4424 5.31734 20.3539 5.33924C20.3008 5.35139 20.2586 5.36903 20.2405 5.37671C20.2114 5.38901 20.1826 5.40301 20.1563 5.41646C20.1033 5.44355 20.0399 5.47896 19.9691 5.52022C19.8265 5.60336 19.6329 5.72237 19.3908 5.87527C18.9054 6.18176 18.2097 6.63413 17.3046 7.23076C15.4937 8.42453 12.8351 10.2023 9.32472 12.5605L9.32471 12.5605L9.32143 12.5627C8.33594 13.2362 7.51636 13.5177 6.82512 13.5001L6.82393 13.5001C6.42161 13.4908 5.79669 13.3751 5.07803 13.1971C4.37049 13.022 3.60898 12.7961 2.95008 12.5848L2.94897 12.5844C2.74849 12.5207 2.55814 12.4619 2.37816 12.4063C1.80141 12.2283 1.33106 12.083 0.974562 11.9115C0.746677 11.8018 0.621177 11.7056 0.557763 11.6281C0.511086 11.571 0.493368 11.5213 0.502071 11.44C0.50874 11.4023 0.557655 11.2742 0.833268 11.0693C1.10383 10.8682 1.52132 10.6467 2.1061 10.408Z" stroke="white"/>
</svg>
